<svg width="60" height="61" viewBox="0 0 60 61" fill="none" xmlns="http://www.w3.org/2000/svg">
<rect y="0.5" width="60" height="60" rx="15" fill="#F54987"/>
<g clip-path="url(#clip0_286_164)">
<path d="M30 40.5C24.477 40.5 20 36.023 20 30.5C20 24.977 24.477 20.5 30 20.5C35.523 20.5 40 24.977 40 30.5C40 36.023 35.523 40.5 30 40.5ZM27.71 38.167C26.7234 36.0743 26.1519 33.8102 26.027 31.5H22.062C22.2566 33.0389 22.8939 34.4882 23.8966 35.6717C24.8992 36.8552 26.224 37.7221 27.71 38.167ZM28.03 31.5C28.181 33.939 28.878 36.23 30 38.252C31.1523 36.1766 31.8254 33.8695 31.97 31.5H28.03ZM37.938 31.5H33.973C33.8481 33.8102 33.2766 36.0743 32.29 38.167C33.776 37.7221 35.1008 36.8552 36.1034 35.6717C37.1061 34.4882 37.7434 33.0389 37.938 31.5ZM22.062 29.5H26.027C26.1519 27.1898 26.7234 24.9257 27.71 22.833C26.224 23.2779 24.8992 24.1448 23.8966 25.3283C22.8939 26.5118 22.2566 27.9611 22.062 29.5ZM28.031 29.5H31.969C31.8248 27.1306 31.152 24.8235 30 22.748C28.8477 24.8234 28.1746 27.1305 28.03 29.5H28.031ZM32.29 22.833C33.2766 24.9257 33.8481 27.1898 33.973 29.5H37.938C37.7434 27.9611 37.1061 26.5118 36.1034 25.3283C35.1008 24.1448 33.776 23.2779 32.29 22.833Z" fill="white"/>
</g>
<defs>
<clipPath id="clip0_286_164">
<rect width="24" height="24" fill="white" transform="translate(18 18.5)"/>
</clipPath>
</defs>
</svg>
