<svg width="138" height="26" viewBox="0 0 138 26" fill="none" xmlns="http://www.w3.org/2000/svg">
<path d="M3.65907 20.3181C2.63036 20.3203 1.68003 19.7689 1.17155 18.8746C0.670393 17.9859 0.700445 16.8932 1.24969 16.0333L6.37233 7.98901C6.90611 7.10883 7.87218 6.58392 8.90109 6.61502C9.92926 6.63966 10.8645 7.21613 11.3485 8.12359C11.826 9.02657 11.7663 10.113 11.1943 10.9606L6.07496 19.0049C5.54733 19.8271 4.63599 20.3224 3.65907 20.3181Z" fill="#F62B54"/>
<path d="M12.4459 20.3177C11.4127 20.3177 10.4619 19.7653 9.96271 18.8775C9.46266 17.9912 9.49272 16.9012 10.0408 16.0438L15.1537 8.01796C15.6798 7.12515 16.6487 6.58792 17.6847 6.61466C18.7265 6.63745 19.6708 7.22026 20.1483 8.13192C20.6226 9.04358 20.5531 10.1365 19.9638 10.9819L14.852 19.0078C14.326 19.8264 13.4189 20.3203 12.4459 20.3177Z" fill="#FFCC00"/>
<path d="M21.036 20.386C22.4925 20.386 23.6733 19.23 23.6733 17.804C23.6733 16.3781 22.4925 15.2221 21.036 15.2221C19.5794 15.2221 18.3987 16.3781 18.3987 17.804C18.3987 19.23 19.5794 20.386 21.036 20.386Z" fill="#00CA72"/>
<path d="M135.607 15.3707C136.404 15.3707 136.88 15.9372 136.88 16.8651V20.0451H137.962V16.7924C137.962 15.2144 137.219 14.2995 135.821 14.2995C135.274 14.2995 134.405 14.4492 133.888 15.4553C133.643 14.8507 133.085 14.4296 132.437 14.3592C132.236 14.3225 132.032 14.3104 131.829 14.3233C131.384 14.3592 130.592 14.6359 130.295 15.2632V14.4199H129.212V20.0451H130.295V17.0095C130.295 15.8287 131.068 15.3707 131.842 15.3707C132.567 15.3707 133.043 15.9253 133.043 16.8532V20.0451H134.12V17.0095C134.12 16.0696 134.684 15.3598 135.607 15.3707ZM125.237 19.1052C125.732 19.1161 126.209 18.9185 126.555 18.5604C126.903 18.2022 127.087 17.7149 127.069 17.2146C127.069 16.0815 126.235 15.3707 125.237 15.3707C124.237 15.3707 123.405 16.0815 123.405 17.2146C123.385 17.7138 123.57 18.2001 123.915 18.5571C124.26 18.9153 124.735 19.1139 125.228 19.1052H125.237ZM125.237 20.1601C123.654 20.1601 122.334 18.9912 122.334 17.2081C122.334 15.4249 123.654 14.293 125.237 14.293C126.819 14.293 128.151 15.4249 128.151 17.2081C128.151 18.9912 126.812 20.1655 125.229 20.1655L125.237 20.1601ZM116.761 17.2081L116.75 17.2146C116.75 15.4314 118.105 14.2995 119.699 14.293C120.508 14.2773 121.286 14.6054 121.84 15.1959L121.019 15.8949C120.667 15.5492 120.192 15.3585 119.699 15.3652C118.7 15.3652 117.832 16.0761 117.832 17.2081C117.832 17.9732 118.287 18.6624 118.984 18.9554C119.682 19.2485 120.485 19.0857 121.019 18.5452L121.852 19.2441C121.296 19.8407 120.514 20.1736 119.699 20.1601C118.117 20.1601 116.761 18.9912 116.761 17.2081ZM113.295 18.9652C113.293 18.7666 113.37 18.5752 113.508 18.4331C113.647 18.291 113.837 18.2099 114.035 18.2077C114.234 18.2099 114.424 18.291 114.562 18.4331C114.701 18.5752 114.778 18.7666 114.776 18.9652C114.756 19.3605 114.431 19.672 114.035 19.6761C113.64 19.672 113.315 19.3605 113.295 18.9652Z" fill="#333333"/>
<path d="M116.256 7.26946H112.402L109.701 14.2339L107.014 7.26946H103.16L107.845 18.2745L104.931 25.5503H108.757L116.256 7.26946ZM92.818 13.3906C92.818 15.1488 94.3548 16.3057 95.8644 16.3057C97.348 16.3057 98.8056 15.2291 98.8056 13.3895C98.8056 11.5499 97.348 10.4722 95.8644 10.4722C94.3548 10.4722 92.818 11.6302 92.818 13.3895V13.3906ZM98.8056 19.5356V18.1431C98.0242 19.3261 96.2009 19.7733 95.2653 19.7733C92.1679 19.7733 89.0693 17.3313 89.0693 13.3895C89.0693 9.44875 92.1668 7.00681 95.2653 7.00681C96.0457 7.00681 97.869 7.26729 98.8056 8.63477V7.2738H102.398V19.5378L98.8056 19.5367V19.5356ZM88.047 19.5356H84.4546V18.0118C83.8544 19.1405 82.399 19.7982 80.8883 19.7982C77.7637 19.7982 75.0038 17.3031 75.0038 13.4394C75.0038 9.50302 77.7637 7.00464 80.8883 7.00464C82.3969 7.00464 83.8566 7.63412 84.4546 8.76392V0.588318H88.047V19.5356ZM84.3764 13.3624C84.3764 11.5239 83.0491 10.4461 81.5655 10.4461C80.0287 10.4461 78.7524 11.602 78.7524 13.3624C78.7524 15.1792 80.0287 16.3296 81.5644 16.3296C83.0763 16.3318 84.3764 15.1227 84.3764 13.3624ZM66.1216 13.0455C66.1216 11.1809 67.0854 10.5503 68.3606 10.5503C69.5837 10.5503 70.4693 11.3643 70.4693 12.9923V19.5334H74.0877V12.2054C74.0877 8.71291 72.3686 7.00464 69.6348 7.00464C68.2032 7.00464 66.7717 7.81862 66.1205 9.0537V7.26946H62.5043V19.5334H66.1216V13.0455ZM55.1568 19.744C51.7207 19.744 48.8544 17.2228 48.8544 13.3613C48.8544 9.49759 51.7174 7.00139 55.1568 7.00139C58.5961 7.00139 61.4841 9.49759 61.4841 13.3613C61.4841 17.225 58.5929 19.745 55.1568 19.745V19.744ZM55.1568 16.1733C56.6653 16.1733 57.9167 15.0685 57.9167 13.3624C57.9167 11.7073 56.6664 10.5775 55.1568 10.5775C54.4222 10.566 53.7151 10.8567 53.2011 11.3817C52.6842 11.9093 52.4034 12.624 52.4229 13.3624C52.424 15.0706 53.6732 16.1733 55.1568 16.1733ZM42.3675 10.5514C43.4344 10.5514 44.3721 11.3925 44.3721 12.9934V19.5356H47.9645V12.5701C47.9645 8.86703 46.1639 7.00247 43.2781 7.00247C42.4207 7.00247 40.8058 7.26295 39.6336 9.18177C38.9564 7.76327 37.6551 7.02744 35.732 7.02744C34.3683 7.0205 33.1265 7.81159 32.5564 9.05045V7.27054H28.9358V19.5345H32.5531V13.0455C32.5531 11.1809 33.569 10.5503 34.6619 10.5503C35.7038 10.5503 36.6393 11.3643 36.6664 12.9141V19.5345H40.2848V13.0455C40.2848 11.2623 41.2225 10.5525 42.3675 10.5525V10.5514Z" fill="#333333"/>
</svg>
