<svg width="167" height="26" viewBox="0 0 167 26" fill="none" xmlns="http://www.w3.org/2000/svg">
<path d="M13.3656 0.0478516L16.1774 8.70172H25.2767L17.9152 14.0501L20.7271 22.704L13.3656 17.3556L6.00422 22.704L8.81603 14.0501L1.45461 8.70172H10.5538L13.3656 0.0478516Z" fill="#FED11C"/>
<path d="M48.4328 0.0478516L51.2446 8.70172H60.3438L52.9824 14.0501L55.7942 22.704L48.4328 17.3556L41.0714 22.704L43.8832 14.0501L36.5218 8.70172H45.621L48.4328 0.0478516Z" fill="#FED11C"/>
<path d="M83.5 0.0478516L86.3118 8.70172H95.411L88.0496 14.0501L90.8614 22.704L83.5 17.3556L76.1386 22.704L78.9504 14.0501L71.589 8.70172H80.6882L83.5 0.0478516Z" fill="#FED11C"/>
<path d="M118.567 0.0478516L121.379 8.70172H130.478L123.117 14.0501L125.929 22.704L118.567 17.3556L111.206 22.704L114.018 14.0501L106.656 8.70172H115.755L118.567 0.0478516Z" fill="#FED11C"/>
<path d="M153.634 0.0478516L156.446 8.70172H165.545L158.184 14.0501L160.996 22.704L153.634 17.3556L146.273 22.704L149.085 14.0501L141.723 8.70172H150.823L153.634 0.0478516Z" fill="#FED11C"/>
</svg>
