<svg width="128" height="20" viewBox="0 0 128 20" fill="none" xmlns="http://www.w3.org/2000/svg">
<g clip-path="url(#clip0_205_623)">
<path d="M35.9869 9.25917C35.9869 12.1725 37.4403 14.7717 39.7128 16.4692V20L43.1178 18.1317C44.0261 18.3825 44.9886 18.5192 45.9861 18.5192C51.5086 18.5192 55.9861 14.3742 55.9861 9.26C55.9869 4.14583 51.5094 0 45.9869 0C40.4644 0 35.9869 4.145 35.9869 9.25917V9.25917ZM44.9319 6.66583L47.5403 9.38167L52.4461 6.66583L46.9794 12.4675L44.4336 9.7525L39.4644 12.4683L44.9319 6.66583Z" fill="#3734A9"/>
</g>
<g clip-path="url(#clip1_205_623)">
<path d="M19.995 19.9999V19.999H20V12.664C20 9.07569 19.2275 6.31152 15.0325 6.31152C13.0158 6.31152 11.6625 7.41819 11.11 8.46736H11.0517V6.64652H7.07417V19.999H11.2158V13.3874C11.2158 11.6465 11.5458 9.96319 13.7017 9.96319C15.8258 9.96319 15.8575 11.9499 15.8575 13.499V19.9999H19.995Z" fill="#3734A9"/>
<path d="M0.33017 6.64795H4.47684V20.0004H0.33017V6.64795Z" fill="#3734A9"/>
<path d="M2.40167 0C1.07583 0 0 1.07583 0 2.40167C0 3.7275 1.07583 4.82583 2.40167 4.82583C3.7275 4.82583 4.80333 3.7275 4.80333 2.40167C4.8025 1.07583 3.72667 0 2.40167 0V0Z" fill="#3734A9"/>
</g>
<g clip-path="url(#clip2_205_623)">
<path d="M89.9189 5.9275C90.7322 5.35 91.4164 4.62917 91.9739 3.79917V3.79833C91.2297 4.12417 90.4381 4.34083 89.6114 4.44583C90.4614 3.93833 91.1106 3.14083 91.4156 2.18C90.6231 2.6525 89.7481 2.98583 88.8156 3.1725C88.0631 2.37083 86.9906 1.875 85.8206 1.875C83.5506 1.875 81.7231 3.7175 81.7231 5.97583C81.7231 6.30083 81.7506 6.61333 81.8181 6.91083C78.4097 6.74417 75.3931 5.11083 73.3664 2.62167C73.0131 3.23583 72.8047 3.93833 72.8047 4.69417C72.8047 6.11417 73.5356 7.3725 74.6264 8.10167C73.9672 8.08917 73.3214 7.8975 72.7739 7.59667V7.64167C72.7739 9.63417 74.1947 11.2892 76.0589 11.6708C75.7247 11.7625 75.3614 11.8058 74.9839 11.8058C74.7214 11.8058 74.4564 11.7908 74.2081 11.7358C74.7389 13.3592 76.2472 14.5533 78.0389 14.5925C76.6439 15.6833 74.8722 16.3408 72.9547 16.3408C72.6189 16.3408 72.2964 16.3258 71.9739 16.285C73.7906 17.4558 75.9422 18.125 78.2639 18.125C85.4997 18.125 90.2156 12.0883 89.9189 5.9275Z" fill="#3734A9"/>
</g>
<g clip-path="url(#clip3_205_623)">
<path d="M116.392 14.0989C116.445 14.0539 116.499 14.0072 116.549 13.958C113.765 16.6897 109.225 15.4147 108.161 11.5622V11.5564C106.733 6.31471 112.752 2.33305 116.547 5.99971C116.627 6.08388 121.869 11.6747 121.536 11.3189H121.551C122.333 12.1255 123.465 12.0372 124.138 11.3322C124.862 10.5755 124.888 9.34055 124.177 8.57138C123.055 7.27888 120.851 8.24471 121.062 10.1605L119.8 8.87555L118.337 7.47638C118.638 6.87721 119.034 6.35305 119.53 5.89971C119.477 5.94555 119.422 5.99305 119.372 6.04055C122.167 3.29888 126.704 4.60388 127.761 8.43971V8.44471C129.192 13.6855 123.166 17.6672 119.374 14.0005C119.297 13.9172 114.057 8.29138 114.389 8.64805L114.386 8.63555C114.372 8.63555 114.372 8.62305 114.372 8.62305C113.551 7.77555 112.437 7.90305 111.785 8.59721C111.06 9.35388 111.035 10.5889 111.747 11.3464C112.821 12.6089 115.072 11.673 114.861 9.71888C114.942 9.80305 117.768 12.7039 117.588 12.5197C117.131 13.4322 116.619 13.8514 116.392 14.0989Z" fill="#3734A9"/>
</g>
<defs>
<clipPath id="clip0_205_623">
<rect width="20" height="20" fill="white" transform="translate(35.9869)"/>
</clipPath>
<clipPath id="clip1_205_623">
<rect width="20" height="20" fill="white"/>
</clipPath>
<clipPath id="clip2_205_623">
<rect width="20" height="20" fill="white" transform="translate(71.9739)"/>
</clipPath>
<clipPath id="clip3_205_623">
<rect width="20" height="20" fill="white" transform="translate(107.961)"/>
</clipPath>
</defs>
</svg>
