<svg width="135" height="21" viewBox="0 0 135 21" fill="none" xmlns="http://www.w3.org/2000/svg">
<path d="M10.9088 0.0288086L13.1776 7.01158L20.5198 7.01158L14.5799 11.3272L16.8487 18.3099L10.9088 13.9944L4.96889 18.3099L7.23773 11.3272L1.29782 7.01158L8.63995 7.01158L10.9088 0.0288086Z" fill="#FED11C"/>
<path d="M39.2044 0.0288086L41.4732 7.01158L48.8153 7.01158L42.8754 11.3272L45.1443 18.3099L39.2044 13.9944L33.2645 18.3099L35.5333 11.3272L29.5934 7.01158L36.9355 7.01158L39.2044 0.0288086Z" fill="#FED11C"/>
<path d="M67.5 0.0288086L69.7688 7.01158L77.1109 7.01158L71.171 11.3272L73.4399 18.3099L67.5 13.9944L61.5601 18.3099L63.8289 11.3272L57.889 7.01158L65.2311 7.01158L67.5 0.0288086Z" fill="#FED11C"/>
<path d="M95.7956 0.0288086L98.0645 7.01158L105.407 7.01158L99.4667 11.3272L101.736 18.3099L95.7956 13.9944L89.8557 18.3099L92.1246 11.3272L86.1847 7.01158L93.5268 7.01158L95.7956 0.0288086Z" fill="#FED11C"/>
<path d="M124.091 0.0288086L126.36 7.01158L133.702 7.01158L127.762 11.3272L130.031 18.3099L124.091 13.9944L118.151 18.3099L120.42 11.3272L114.48 7.01158L121.822 7.01158L124.091 0.0288086Z" fill="#FED11C"/>
</svg>
