<svg width="60" height="60" viewBox="0 0 60 60" fill="none" xmlns="http://www.w3.org/2000/svg">
<rect width="60" height="60" rx="15" fill="#4D67EF"/>
<g clip-path="url(#clip0_286_146)">
<path d="M38.083 33.1999L39.285 33.9209C39.3592 33.9653 39.4205 34.0282 39.4632 34.1034C39.5058 34.1786 39.5282 34.2635 39.5282 34.3499C39.5282 34.4364 39.5058 34.5213 39.4632 34.5965C39.4205 34.6717 39.3592 34.7346 39.285 34.7789L30.515 40.0409C30.3595 40.1344 30.1815 40.1838 30 40.1838C29.8186 40.1838 29.6405 40.1344 29.485 40.0409L20.715 34.7789C20.6409 34.7346 20.5795 34.6717 20.5369 34.5965C20.4942 34.5213 20.4718 34.4364 20.4718 34.3499C20.4718 34.2635 20.4942 34.1786 20.5369 34.1034C20.5795 34.0282 20.6409 33.9653 20.715 33.9209L21.917 33.1999L30 38.0499L38.083 33.1999ZM38.083 28.4999L39.285 29.2209C39.3592 29.2653 39.4205 29.3282 39.4632 29.4034C39.5058 29.4786 39.5282 29.5635 39.5282 29.6499C39.5282 29.7364 39.5058 29.8213 39.4632 29.8965C39.4205 29.9717 39.3592 30.0346 39.285 30.0789L30 35.6499L20.715 30.0789C20.6409 30.0346 20.5795 29.9717 20.5369 29.8965C20.4942 29.8213 20.4718 29.7364 20.4718 29.6499C20.4718 29.5635 20.4942 29.4786 20.5369 29.4034C20.5795 29.3282 20.6409 29.2653 20.715 29.2209L21.917 28.4999L30 33.3499L38.083 28.4999ZM30.514 19.3089L39.285 24.5709C39.3592 24.6153 39.4205 24.6782 39.4632 24.7534C39.5058 24.8286 39.5282 24.9135 39.5282 24.9999C39.5282 25.0864 39.5058 25.1713 39.4632 25.2465C39.4205 25.3217 39.3592 25.3846 39.285 25.4289L30 30.9999L20.715 25.4289C20.6409 25.3846 20.5795 25.3217 20.5369 25.2465C20.4942 25.1713 20.4718 25.0864 20.4718 24.9999C20.4718 24.9135 20.4942 24.8286 20.5369 24.7534C20.5795 24.6782 20.6409 24.6153 20.715 24.5709L29.485 19.3089C29.6405 19.2155 29.8186 19.1661 30 19.1661C30.1815 19.1661 30.3595 19.2155 30.515 19.3089H30.514ZM30 21.3319L23.887 24.9999L30 28.6679L36.113 24.9999L30 21.3319Z" fill="white"/>
</g>
<defs>
<clipPath id="clip0_286_146">
<rect x="18" y="18" width="24" height="24" rx="12" fill="white"/>
</clipPath>
</defs>
</svg>
