<svg width="60" height="61" viewBox="0 0 60 61" fill="none" xmlns="http://www.w3.org/2000/svg">
<rect y="0.5" width="60" height="60" rx="15" fill="#2FE6C8"/>
<g clip-path="url(#clip0_286_173)">
<path d="M30 40.5C24.477 40.5 20 36.023 20 30.5C20 26.022 22.943 22.232 27 20.958V23.082C25.2809 23.78 23.8578 25.0537 22.9741 26.6851C22.0903 28.3165 21.8009 30.2043 22.1553 32.0255C22.5096 33.8468 23.4858 35.4883 24.9168 36.6693C26.3477 37.8503 28.1446 38.4975 30 38.5C31.5938 38.5 33.1513 38.024 34.4728 37.1332C35.7944 36.2424 36.82 34.9773 37.418 33.5H39.542C38.268 37.557 34.478 40.5 30 40.5ZM39.95 31.5H29V20.55C29.329 20.517 29.663 20.5 30 20.5C35.523 20.5 40 24.977 40 30.5C40 30.837 39.983 31.171 39.95 31.5ZM31 22.562V29.5H37.938C37.7154 27.7376 36.9129 26.0993 35.6568 24.8432C34.4007 23.5871 32.7624 22.7846 31 22.562Z" fill="white"/>
</g>
<defs>
<clipPath id="clip0_286_173">
<rect width="24" height="24" fill="white" transform="translate(18 18.5)"/>
</clipPath>
</defs>
</svg>
