<svg width="138" height="29" viewBox="0 0 138 29" fill="none" xmlns="http://www.w3.org/2000/svg">
<path d="M25.2642 15.0698L25.2823 15.0712L27.178 15.2694C27.3111 15.2837 27.4333 15.3487 27.5197 15.4502L27.5337 15.4675L27.5157 15.4764C27.6043 15.5883 27.6434 15.7314 27.6238 15.8727C27.2096 19.1655 25.6489 22.2071 23.2157 24.4638C20.6909 26.8055 17.3746 28.1066 13.931 28.1066C12.2585 28.1092 10.6003 27.8013 9.04058 27.1986L8.95561 27.1655C8.82795 27.1183 8.72538 27.0212 8.67108 26.8971L8.66291 26.8773C8.60974 26.7538 8.60678 26.6147 8.65405 26.4895L9.4023 24.6639C9.50369 24.4059 9.79103 24.2759 10.0505 24.3674L10.0678 24.3738C13.8924 25.8506 18.2242 25.0188 21.23 22.2305C23.1432 20.4726 24.3768 18.0976 24.715 15.5215C24.7508 15.2555 24.9816 15.0619 25.2461 15.069L25.2642 15.0698ZM70.0347 7.32211C71.6511 7.32211 72.9152 7.81527 73.7225 8.76239L73.7495 8.79449V7.993C73.7603 7.76929 73.9335 7.58848 74.1547 7.56665L74.1727 7.56523H76.3295C76.5514 7.58057 76.7279 7.75523 76.7471 7.97508L76.7483 7.993V19.9657C76.818 21.6539 76.2991 23.314 75.2804 24.662C74.1187 26.0758 72.3537 26.7918 70.0347 26.7918C66.8108 26.7918 64.2667 24.7521 63.848 21.8387C63.8272 21.6285 63.9553 21.4329 64.1545 21.3669L64.1722 21.3615L66.2795 20.8662C66.2905 20.8637 66.3015 20.8616 66.3126 20.86C66.5439 20.8261 66.7589 20.9861 66.7928 21.2174C66.9852 22.8516 68.3898 24.0707 70.0347 24.0316C72.5266 24.0316 73.6989 22.765 73.7221 20.1183L73.7225 20.0377V18.9886C72.7884 20.0362 71.4376 20.6151 70.0347 20.569C66.4506 20.569 63.8526 17.7864 63.8526 13.959C63.8197 12.2371 64.4261 10.5639 65.5545 9.26273C66.7007 8.0035 68.3322 7.29685 70.0347 7.32211ZM5.12431 21.8837L5.15104 21.8835L5.17786 21.8838C6.03819 21.8936 6.73089 22.5893 6.74024 23.4465L6.74031 23.4733C6.74031 23.4822 6.74021 23.4911 6.74005 23.5C6.72507 24.3777 6.00151 25.0772 5.1238 25.0623C4.24609 25.0473 3.5467 24.3237 3.56153 23.446C3.57621 22.5862 4.27083 21.8975 5.12431 21.8837ZM107.369 7.15552L107.48 7.15633C111.333 7.20954 113.72 9.89149 113.72 14.1842C113.72 14.4113 113.708 14.6383 113.684 14.8641C113.664 15.0718 113.494 15.2319 113.287 15.2418L113.27 15.2423H104.111C104.167 17.1658 105.758 18.6878 107.682 18.6598C109.173 18.7536 110.533 17.8051 110.96 16.3725C111.038 16.1669 111.26 16.0562 111.469 16.1152L111.486 16.1204L113.314 16.7642C113.415 16.7967 113.498 16.8684 113.545 16.9625L113.553 16.9804C113.603 17.0796 113.612 17.1948 113.576 17.3001C112.727 19.8141 110.334 21.4775 107.682 21.3975C105.943 21.4148 104.269 20.7354 103.035 19.5109C101.688 18.0933 100.969 16.1926 101.04 14.2382C101.04 9.84745 104.196 7.20866 107.278 7.15632L107.369 7.15552ZM55.545 7.15553H55.5495C59.4714 7.15553 61.9074 9.84812 61.9074 14.1842C61.9071 14.4113 61.895 14.6383 61.8713 14.8641C61.8531 15.0729 61.6822 15.2342 61.4745 15.242L61.4571 15.2423H52.2986C52.3551 17.1712 53.9534 18.6953 55.8827 18.6599C57.3752 18.7553 58.7353 17.8062 59.1607 16.3725C59.237 16.1652 59.4604 16.0538 59.6705 16.115L59.6875 16.1204L61.5156 16.7642C61.6225 16.7988 61.7094 16.8775 61.7542 16.9804C61.797 17.0827 61.797 17.1978 61.7542 17.3001C60.9058 19.8125 58.5154 21.4755 55.8647 21.3975C54.1228 21.4172 52.4457 20.7377 51.2089 19.5109C49.8634 18.0922 49.1446 16.1923 49.2142 14.2382C49.2142 9.8031 52.4337 7.15553 55.545 7.15553ZM41.6767 7.15097C43.4372 7.15097 44.8601 7.57874 45.9138 8.4207C46.6262 8.98849 47.1542 9.75468 47.4311 10.6226L47.432 10.6261C47.4682 10.7757 47.3802 10.9264 47.2343 10.9698L47.2195 10.9737L45.0357 11.6942C44.9388 11.7326 44.8309 11.7326 44.7341 11.6942C44.6514 11.6556 44.5891 11.5835 44.5629 11.4961L44.5513 11.4531C44.3524 10.7421 43.7021 9.60045 41.6767 9.60045C40.2359 9.60045 39.3714 10.429 39.3714 11.2305L39.3717 11.2622C39.3825 11.7833 39.6659 12.4375 40.9086 12.6862L40.9473 12.6938L43.3517 13.144C46.0085 13.679 47.5399 15.123 47.5702 17.1353L47.5707 17.1965L47.5617 17.1606L47.5612 17.2216C47.5225 19.2388 45.5713 21.3615 41.9784 21.3615C37.7684 21.3615 36.1159 18.9796 35.8097 17.5748C35.7897 17.4278 35.8794 17.289 36.0196 17.2458L36.0348 17.2415L38.2862 16.5391C38.3264 16.5326 38.3675 16.5326 38.4078 16.5391C38.465 16.5381 38.5216 16.5502 38.5732 16.5745L38.5923 16.5841C38.6751 16.6238 38.7361 16.698 38.7589 16.7867C39.0427 18.1376 40.2629 18.9436 42.0189 18.9436C43.6534 18.9436 44.3964 18.088 44.3964 17.3136C44.3964 16.5476 43.7489 15.9798 42.6327 15.7453L42.5953 15.7376L40.0693 15.2468C37.7143 14.8011 36.2465 13.3377 36.2465 11.433C36.2465 9.11414 38.7365 7.15097 41.6767 7.15097ZM132.487 3.40025H134.455C134.687 3.41419 134.869 3.60249 134.878 3.83312L134.878 3.8505V7.54723H137.246C137.477 7.56342 137.656 7.75089 137.665 7.97979L137.666 7.99748V9.96066L137.665 9.97775C137.659 10.1979 137.484 10.3766 137.264 10.3879L137.246 10.3884H134.878V16.9579C134.878 18.0475 135.31 18.4978 136.422 18.4978C136.647 18.4939 136.873 18.4768 137.096 18.4466L137.179 18.4347C137.302 18.4139 137.427 18.4486 137.521 18.5293C137.606 18.6082 137.657 18.7166 137.665 18.8318L137.666 18.8535V20.7041C137.667 20.8927 137.544 21.0597 137.364 21.1139C136.845 21.259 136.31 21.3319 135.771 21.3306L135.698 21.33C133.348 21.33 131.882 19.8339 131.853 17.4142L131.853 17.3406V10.4155H129.804C129.58 10.4023 129.401 10.227 129.382 10.0057L129.38 9.98768V8.01547C129.38 7.78281 129.557 7.58917 129.786 7.5666L129.804 7.56523L130.354 7.56516L130.413 7.56411C131.056 7.54564 132.044 7.28505 132.064 5.84985L132.064 5.80463V3.8505C132.063 3.61783 132.241 3.4242 132.47 3.40162L132.487 3.40025ZM94.2436 7.15352L94.2952 7.15553H94.2906C96.6087 7.15553 98.9489 8.77065 98.9954 12.2981L98.9961 12.4056V20.7446C98.9856 20.9683 98.8118 21.1491 98.5909 21.171L98.5729 21.1724H96.4159C96.1926 21.1592 96.0139 20.984 95.9939 20.7627L95.9927 20.7446V12.6758L95.9923 12.6137C95.9792 11.5856 95.6297 9.93362 93.5121 9.93362C91.947 9.93362 90.8323 11.1517 90.8102 12.9236L90.8098 12.9775V20.7446C90.7993 20.9683 90.6262 21.1491 90.4047 21.171L90.3866 21.1724H88.2033C87.9792 21.1592 87.8006 20.984 87.7813 20.7627L87.7801 20.7446V12.6758L87.7797 12.6137C87.7666 11.5856 87.4172 9.93362 85.2987 9.93362C83.6717 9.93362 82.57 11.1428 82.5482 12.9496L82.5478 13.0045V20.7446C82.5366 20.9683 82.3635 21.1491 82.1426 21.171L82.1246 21.1724H79.9676C79.7458 21.1571 79.5693 20.9823 79.5502 20.7626L79.549 20.7446V7.96597C79.5596 7.74384 79.7304 7.56366 79.9497 7.53979L79.9676 7.5382H82.0435C82.2669 7.55136 82.4463 7.72662 82.4655 7.94793L82.4668 7.96597V8.73595C83.4005 7.71219 84.728 7.13699 86.1135 7.15553C87.7183 7.10849 89.2158 7.95693 89.9997 9.35726C90.9332 7.93087 92.5427 7.09641 94.2436 7.15352ZM126.539 8.7449C127.365 9.83349 127.791 11.1724 127.748 12.537L127.745 12.5947V20.7446C127.735 20.9668 127.564 21.1469 127.345 21.1708L127.327 21.1724H125.144C124.92 21.1592 124.741 20.984 124.721 20.7627L124.72 20.7446V13.0315C124.72 11.0143 123.77 9.98768 121.969 9.98768C121.173 9.96196 120.413 10.3164 119.92 10.9422C119.443 11.6292 119.197 12.4491 119.216 13.284L119.218 13.3332V20.7446C119.207 20.9683 119.033 21.1491 118.813 21.171L118.795 21.1724H116.615C116.392 21.1592 116.212 20.984 116.193 20.7627L116.192 20.7446V7.95693C116.203 7.73322 116.376 7.55249 116.597 7.53059L116.615 7.52916H118.745C118.967 7.5445 119.143 7.71924 119.163 7.93902L119.164 7.95693V8.8575C120.077 7.75065 121.448 7.12348 122.883 7.15553C124.281 7.09575 125.629 7.68184 126.539 8.7449ZM1.03984 15.6161H16.5427C16.8275 15.6185 17.0577 15.8466 17.0649 16.1293L17.065 16.1474V18.0881C17.0674 18.373 16.8432 18.607 16.5607 18.6189L16.5426 18.6194H1.03984C0.754901 18.6169 0.524831 18.3888 0.517517 18.1061V18.088V16.1473V16.1292C0.524678 15.8527 0.745075 15.6284 1.02134 15.6165L1.03984 15.6161ZM70.4085 10.0147C68.2832 10.0147 66.9324 11.5276 66.9324 13.959C66.9324 16.3905 68.2651 17.8989 70.4085 17.8989C72.4527 17.8989 73.8305 16.314 73.8305 13.959C73.8305 11.5996 72.4527 10.0147 70.4085 10.0147ZM52.3944 12.6455L52.3887 12.6938H58.796C58.64 10.9821 57.4337 9.91465 55.627 9.89347L55.572 9.89315C53.9801 9.86726 52.6244 11.0316 52.4009 12.5979L52.3944 12.6455ZM104.225 12.6455L104.219 12.6938H110.627C110.471 10.9821 109.264 9.91465 107.457 9.89347L107.403 9.89315C105.811 9.86726 104.455 11.0316 104.231 12.5979L104.225 12.6455ZM18.4833 0.806661C18.6175 0.855084 18.7263 0.955791 18.785 1.08585C18.8388 1.21713 18.8388 1.36433 18.785 1.49555L18.1096 3.29669C18.016 3.56375 17.724 3.70469 17.4567 3.61186C13.9184 2.37712 9.99218 3.07867 7.10048 5.46243C5.29834 6.97087 4.01873 9.01011 3.44429 11.2889C3.38483 11.5191 3.17762 11.68 2.93999 11.6807H2.82291L0.967783 11.2349C0.829466 11.2024 0.710687 11.1145 0.639095 10.9917H0.63006C0.554993 10.8691 0.533832 10.7209 0.571597 10.582C1.30829 7.66493 2.95667 5.05906 5.27687 3.14354C8.96626 0.106192 13.9757 -0.780246 18.4833 0.806661ZM11.6167 8.58736H27.1195C27.3973 8.58962 27.6244 8.80696 27.641 9.08219L27.6418 9.10062V11.0413C27.6442 11.3263 27.4201 11.5602 27.1376 11.5722L27.1195 11.5727H11.6167C11.3336 11.5678 11.1062 11.3405 11.099 11.0597L11.0988 11.0413V9.11862C11.0964 8.83555 11.3177 8.60241 11.5983 8.58799L11.6167 8.58736ZM22.3787 2.66624L22.4054 2.66603L22.4322 2.66627C23.2925 2.67613 23.9852 3.37178 23.9946 4.22888L23.9946 4.25572C23.9946 4.26468 23.9945 4.27364 23.9944 4.28252C23.9795 5.16023 23.2558 5.85962 22.3781 5.84471C21.5004 5.82981 20.801 5.10617 20.8159 4.22854C20.8305 3.36866 21.5252 2.67998 22.3787 2.66624Z" fill="#4FB58B"/>
</svg>
