<svg width="17" height="17" viewBox="0 0 17 17" fill="none" xmlns="http://www.w3.org/2000/svg">
<g clip-path="url(#clip0_205_240)">
<path d="M7.90321 1.18111C8.11531 1.16253 8.32934 1.15356 8.54594 1.15356C12.6279 1.15356 15.9373 4.45198 15.9373 8.52039C15.9373 8.73627 15.9283 8.94959 15.9097 9.16099H14.9417C14.6191 12.3979 11.8785 14.9263 8.54594 14.9263C4.99615 14.9263 2.11865 12.0584 2.11865 8.52039C2.11865 5.19891 4.6555 2.46742 7.90321 2.14648V1.18047V1.18111ZM7.90321 9.16099V3.43536C6.60664 3.59979 5.42154 4.25011 4.58878 5.25414C3.75602 6.25818 3.33809 7.54058 3.41993 8.84071C3.50178 10.1408 4.07726 11.3611 5.02941 12.2535C5.98155 13.1459 7.23892 13.6435 8.54594 13.6451C9.79837 13.6451 11.0077 13.1896 11.9471 12.364C12.8865 11.5383 13.4912 10.3994 13.6479 9.16099H7.90321ZM14.6184 7.8798C14.4711 6.49477 13.8517 5.20198 12.8635 4.21713C11.8754 3.23228 10.5783 2.61492 9.18867 2.46806V7.8798H14.6184Z" fill="#7A66F5"/>
</g>
<defs>
<clipPath id="clip0_205_240">
<rect width="15.4255" height="15.3742" fill="white" transform="translate(0.833191 0.833221)"/>
</clipPath>
</defs>
</svg>
