<svg width="261" height="158" viewBox="0 0 261 158" fill="none" xmlns="http://www.w3.org/2000/svg">
<path d="M1.09715 156.037L3.56162 153.435C6.02608 150.832 10.955 145.628 15.6643 139.955C20.3735 134.283 24.8631 128.143 31.1841 125.902C37.5051 123.662 45.6576 125.322 51.9044 122.924C58.1512 120.526 62.4925 114.07 68.8784 111.968C75.2643 109.866 83.695 112.118 88.948 107.603C94.2011 103.089 96.2765 91.808 100.867 85.8831C105.458 79.9582 112.564 79.3894 121.48 82.6754C130.396 85.9613 141.122 93.1021 149.427 95.087C157.733 97.0718 163.617 93.9009 167.7 86.8965C171.784 79.8922 174.068 69.0544 179.025 63.9113C183.983 58.7682 191.615 59.3198 198.319 57.8937C205.022 56.4676 210.797 53.0639 217.388 51.3989C223.979 49.7339 231.387 49.8077 235.187 42.2009C238.988 34.5942 239.182 19.3069 242.829 11.3706C246.475 3.43429 253.573 2.8489 257.122 2.5562L260.671 2.26349" stroke="#FDBC64" stroke-width="3"/>
</svg>
