<svg width="330" height="148" viewBox="0 0 330 148" fill="none" xmlns="http://www.w3.org/2000/svg">
<path d="M1.13593 146.198L4.89323 143.263C8.65054 140.327 16.1651 134.456 23.5986 127.873C31.0321 121.29 38.3845 113.994 46.4132 112.637C54.4419 111.281 63.147 115.862 71.1484 114.265C79.1497 112.668 86.4473 104.891 94.5 103.745C102.553 102.598 111.361 108.082 118.995 103.262C126.629 98.4426 133.09 83.3188 140.48 76.3511C147.869 69.3834 156.188 70.5717 165.175 77.6299C174.162 84.6881 183.818 97.6161 192.579 102.693C201.341 107.77 209.208 104.996 216.411 96.3845C223.613 87.773 230.151 73.3242 237.676 67.5469C245.201 61.7697 253.714 64.664 261.884 64.5469C270.054 64.4298 277.881 61.3012 286.01 60.8202C294.138 60.3393 302.568 62.5061 309.666 52.9774C316.764 43.4486 322.53 22.2243 325.413 11.6121L328.296 0.999991" stroke="#7A66F5" stroke-width="3"/>
</svg>
